<svg width="112" height="24" viewBox="0 0 112 24" fill="none" xmlns="http://www.w3.org/2000/svg">
<path d="M11.2443 4.17391C11.4934 3.45746 12.5066 3.45746 12.7557 4.17391L14.1684 8.2381C14.2782 8.55416 14.5732 8.76846 14.9077 8.77527L19.2095 8.86294C19.9679 8.87839 20.281 9.84203 19.6766 10.3003L16.2478 12.8997C15.9812 13.1019 15.8685 13.4486 15.9654 13.7689L17.2114 17.8873C17.431 18.6133 16.6113 19.2088 15.9887 18.7756L12.4569 16.318C12.1823 16.1269 11.8177 16.1268 11.5431 16.318L8.01128 18.7756C7.38868 19.2088 6.56896 18.6133 6.78861 17.8873L8.03457 13.7689C8.13146 13.4486 8.0188 13.1019 7.75216 12.8997L4.32344 10.3003C3.71901 9.84203 4.03212 8.87839 4.79046 8.86294L9.09228 8.77527C9.42682 8.76846 9.72178 8.55416 9.83164 8.2381L11.2443 4.17391Z" fill="#626E5E"/>
<path d="M33.2443 4.17391C33.4934 3.45746 34.5066 3.45746 34.7557 4.17391L36.1684 8.2381C36.2782 8.55416 36.5732 8.76846 36.9077 8.77527L41.2095 8.86294C41.9679 8.87839 42.281 9.84203 41.6766 10.3003L38.2478 12.8997C37.9812 13.1019 37.8685 13.4486 37.9654 13.7689L39.2114 17.8873C39.431 18.6133 38.6113 19.2088 37.9887 18.7756L34.4569 16.318C34.1823 16.1269 33.8177 16.1268 33.5431 16.318L30.0113 18.7756C29.3887 19.2088 28.569 18.6133 28.7886 17.8873L30.0346 13.7689C30.1315 13.4486 30.0188 13.1019 29.7522 12.8997L26.3234 10.3003C25.719 9.84203 26.0321 8.87839 26.7905 8.86294L31.0923 8.77527C31.4268 8.76846 31.7218 8.55416 31.8316 8.2381L33.2443 4.17391Z" fill="#626E5E"/>
<path d="M55.2443 4.17391C55.4934 3.45746 56.5066 3.45746 56.7557 4.17391L58.1684 8.2381C58.2782 8.55416 58.5732 8.76846 58.9077 8.77527L63.2095 8.86294C63.9679 8.87839 64.281 9.84203 63.6766 10.3003L60.2478 12.8997C59.9812 13.1019 59.8685 13.4486 59.9654 13.7689L61.2114 17.8873C61.431 18.6133 60.6113 19.2088 59.9887 18.7756L56.4569 16.318C56.1823 16.1269 55.8177 16.1268 55.5431 16.318L52.0113 18.7756C51.3887 19.2088 50.569 18.6133 50.7886 17.8873L52.0346 13.7689C52.1315 13.4486 52.0188 13.1019 51.7522 12.8997L48.3234 10.3003C47.719 9.84203 48.0321 8.87839 48.7905 8.86294L53.0923 8.77527C53.4268 8.76846 53.7218 8.55416 53.8316 8.2381L55.2443 4.17391Z" fill="#626E5E"/>
<path d="M77.2443 4.17391C77.4934 3.45746 78.5066 3.45746 78.7557 4.17391L80.1684 8.2381C80.2782 8.55416 80.5732 8.76846 80.9077 8.77527L85.2095 8.86294C85.9679 8.87839 86.281 9.84203 85.6766 10.3003L82.2478 12.8997C81.9812 13.1019 81.8685 13.4486 81.9654 13.7689L83.2114 17.8873C83.431 18.6133 82.6113 19.2088 81.9887 18.7756L78.4569 16.318C78.1823 16.1269 77.8177 16.1268 77.5431 16.318L74.0113 18.7756C73.3887 19.2088 72.569 18.6133 72.7886 17.8873L74.0346 13.7689C74.1315 13.4486 74.0188 13.1019 73.7522 12.8997L70.3234 10.3003C69.719 9.84203 70.0321 8.87839 70.7905 8.86294L75.0923 8.77527C75.4268 8.76846 75.7218 8.55416 75.8316 8.2381L77.2443 4.17391Z" fill="#DDDDDD"/>
<path d="M99.2443 4.17391C99.4934 3.45746 100.507 3.45746 100.756 4.17391L102.168 8.2381C102.278 8.55416 102.573 8.76846 102.908 8.77527L107.21 8.86294C107.968 8.87839 108.281 9.84203 107.677 10.3003L104.248 12.8997C103.981 13.1019 103.869 13.4486 103.965 13.7689L105.211 17.8873C105.431 18.6133 104.611 19.2088 103.989 18.7756L100.457 16.318C100.182 16.1269 99.8177 16.1268 99.5431 16.318L96.0113 18.7756C95.3887 19.2088 94.569 18.6133 94.7886 17.8873L96.0346 13.7689C96.1315 13.4486 96.0188 13.1019 95.7522 12.8997L92.3234 10.3003C91.719 9.84203 92.0321 8.87839 92.7905 8.86294L97.0923 8.77527C97.4268 8.76846 97.7218 8.55416 97.8316 8.2381L99.2443 4.17391Z" fill="#DDDDDD"/>
</svg>
