<svg width="24" height="24" viewBox="0 0 24 24" fill="none" xmlns="http://www.w3.org/2000/svg">
<path fill-rule="evenodd" clip-rule="evenodd" d="M3.29289 19.2929C2.90237 19.6834 2.90237 20.3166 3.29289 20.7071C3.68342 21.0976 4.31658 21.0976 4.70711 20.7071L8.80778 16.6063C9.97637 17.4816 11.4276 18 13 18C16.866 18 20 14.866 20 11C20 7.13401 16.866 4 13 4C9.13402 4 6.00001 7.13401 6.00001 11C6.00001 12.5723 6.5184 14.0235 7.39358 15.1921L3.29289 19.2929ZM13 16C15.7614 16 18 13.7614 18 11C18 8.23858 15.7614 6 13 6C10.2386 6 8.00001 8.23858 8.00001 11C8.00001 13.7614 10.2386 16 13 16Z" fill="white"/>
</svg>
