<svg width="24" height="24" viewBox="0 0 24 24" fill="none" xmlns="http://www.w3.org/2000/svg">
<path fill-rule="evenodd" clip-rule="evenodd" d="M12 2C9.284 2 8.944 2.012 7.877 2.06C6.813 2.109 6.086 2.278 5.45 2.525C4.78249 2.77584 4.17775 3.16933 3.678 3.678C3.16936 4.17777 2.77587 4.7825 2.525 5.45C2.278 6.086 2.109 6.813 2.06 7.877C2.011 8.944 2 9.284 2 12C2 14.716 2.011 15.056 2.06 16.123C2.109 17.187 2.278 17.914 2.525 18.55C2.7759 19.2175 3.16938 19.8222 3.678 20.322C4.17779 20.8306 4.78252 21.2241 5.45 21.475C6.086 21.722 6.813 21.891 7.877 21.94C8.944 21.988 9.284 22 12 22C14.716 22 15.056 21.988 16.123 21.94C17.187 21.891 17.914 21.722 18.55 21.475C19.2175 21.2241 19.8222 20.8306 20.322 20.322C20.8306 19.8222 21.2241 19.2175 21.475 18.55C21.722 17.914 21.891 17.187 21.94 16.123C21.988 15.056 22 14.716 22 12C22 9.284 21.988 8.944 21.94 7.877C21.891 6.813 21.722 6.086 21.475 5.45C21.2241 4.7825 20.8306 4.17777 20.322 3.678C19.8222 3.16933 19.2175 2.77584 18.55 2.525C17.914 2.278 17.187 2.109 16.123 2.06C15.056 2.012 14.716 2 12 2ZM12 3.802C14.67 3.802 14.986 3.812 16.04 3.86C17.016 3.905 17.545 4.067 17.898 4.204C18.364 4.386 18.698 4.603 19.048 4.952C19.398 5.302 19.614 5.636 19.796 6.102C19.932 6.455 20.096 6.984 20.14 7.959C20.188 9.014 20.198 9.329 20.198 12C20.198 14.67 20.188 14.986 20.14 16.04C20.095 17.016 19.932 17.545 19.796 17.898C19.6357 18.3324 19.3801 18.7253 19.048 19.048C18.698 19.398 18.364 19.614 17.898 19.796C17.545 19.932 17.016 20.096 16.041 20.14C14.987 20.188 14.671 20.198 12 20.198C9.33 20.198 9.013 20.188 7.96 20.14C6.984 20.095 6.455 19.932 6.102 19.796C5.66758 19.6357 5.27462 19.3801 4.952 19.048C4.61986 18.7254 4.36426 18.3324 4.204 17.898C4.067 17.545 3.904 17.016 3.86 16.041C3.812 14.986 3.802 14.671 3.802 12C3.802 9.33 3.812 9.014 3.86 7.96C3.905 6.984 4.067 6.455 4.204 6.102C4.386 5.636 4.603 5.302 4.952 4.952C5.302 4.602 5.636 4.386 6.102 4.204C6.455 4.067 6.984 3.904 7.959 3.86C9.014 3.812 9.329 3.802 12 3.802ZM12 15.333C11.116 15.333 10.2683 14.9818 9.64321 14.3568C9.01815 13.7317 8.667 12.884 8.667 12C8.667 11.116 9.01815 10.2683 9.64321 9.64321C10.2683 9.01815 11.116 8.667 12 8.667C12.884 8.667 13.7317 9.01815 14.3568 9.64321C14.9818 10.2683 15.333 11.116 15.333 12C15.333 12.884 14.9818 13.7317 14.3568 14.3568C13.7317 14.9818 12.884 15.333 12 15.333V15.333ZM12 6.865C11.3257 6.865 10.6579 6.99782 10.0349 7.25588C9.41191 7.51394 8.84584 7.89218 8.36901 8.36901C7.89218 8.84584 7.51394 9.41191 7.25588 10.0349C6.99782 10.6579 6.865 11.3257 6.865 12C6.865 12.6743 6.99782 13.3421 7.25588 13.9651C7.51394 14.5881 7.89218 15.1542 8.36901 15.631C8.84584 16.1078 9.41191 16.4861 10.0349 16.7441C10.6579 17.0022 11.3257 17.135 12 17.135C13.3619 17.135 14.668 16.594 15.631 15.631C16.594 14.668 17.135 13.3619 17.135 12C17.135 10.6381 16.594 9.33201 15.631 8.36901C14.668 7.40601 13.3619 6.865 12 6.865V6.865ZM18.538 6.662C18.538 6.81959 18.507 6.97563 18.4467 7.12122C18.3863 7.26681 18.298 7.3991 18.1865 7.51053C18.0751 7.62196 17.9428 7.71035 17.7972 7.77066C17.6516 7.83096 17.4956 7.862 17.338 7.862C17.1804 7.862 17.0244 7.83096 16.8788 7.77066C16.7332 7.71035 16.6009 7.62196 16.4895 7.51053C16.378 7.3991 16.2897 7.26681 16.2293 7.12122C16.169 6.97563 16.138 6.81959 16.138 6.662C16.138 6.34374 16.2644 6.03852 16.4895 5.81347C16.7145 5.58843 17.0197 5.462 17.338 5.462C17.6563 5.462 17.9615 5.58843 18.1865 5.81347C18.4116 6.03852 18.538 6.34374 18.538 6.662" fill="white"/>
</svg>
