<svg width="89" height="19" viewBox="0 0 89 19" fill="none" xmlns="http://www.w3.org/2000/svg">
<path d="M0.608751 0.335999H4.08875V14.64H12.3928V18H0.608751V0.335999ZM20.195 9.192C20.195 7.976 20.427 6.824 20.891 5.736C21.355 4.648 21.995 3.688 22.811 2.856C23.643 2.008 24.603 1.344 25.691 0.863999C26.779 0.383999 27.939 0.144 29.171 0.144C30.419 0.144 31.587 0.383999 32.675 0.863999C33.763 1.344 34.723 2.008 35.555 2.856C36.403 3.688 37.059 4.648 37.523 5.736C38.003 6.824 38.243 7.976 38.243 9.192C38.243 10.44 38.003 11.608 37.523 12.696C37.059 13.784 36.403 14.744 35.555 15.576C34.723 16.392 33.763 17.032 32.675 17.496C31.587 17.96 30.427 18.192 29.195 18.192C27.947 18.192 26.779 17.96 25.691 17.496C24.603 17.032 23.643 16.392 22.811 15.576C21.995 14.744 21.355 13.784 20.891 12.696C20.427 11.608 20.195 10.44 20.195 9.192ZM23.795 9.192C23.795 10.232 24.035 11.184 24.515 12.048C25.011 12.896 25.675 13.576 26.507 14.088C27.339 14.584 28.275 14.832 29.315 14.832C30.323 14.832 31.227 14.584 32.027 14.088C32.843 13.576 33.483 12.896 33.947 12.048C34.411 11.184 34.643 10.232 34.643 9.192C34.643 8.12 34.403 7.16 33.923 6.312C33.443 5.448 32.795 4.768 31.979 4.272C31.163 3.76 30.243 3.504 29.219 3.504C28.195 3.504 27.275 3.76 26.459 4.272C25.643 4.768 24.995 5.448 24.515 6.312C24.035 7.16 23.795 8.12 23.795 9.192ZM61.8005 16.224C61.5925 16.448 61.2645 16.68 60.8165 16.92C60.3685 17.144 59.8485 17.352 59.2565 17.544C58.6805 17.736 58.0885 17.888 57.4805 18C56.8725 18.128 56.2965 18.192 55.7525 18.192C53.8485 18.192 52.1925 17.824 50.7845 17.088C49.3765 16.352 48.2885 15.344 47.5205 14.064C46.7685 12.784 46.3925 11.32 46.3925 9.672C46.3925 8.056 46.6325 6.656 47.1125 5.472C47.6085 4.272 48.2725 3.28 49.1045 2.496C49.9525 1.696 50.9205 1.104 52.0085 0.719999C53.1125 0.335999 54.2645 0.144 55.4645 0.144C56.6005 0.144 57.6405 0.271999 58.5845 0.527999C59.5285 0.767999 60.3285 1.072 60.9845 1.44L59.8565 4.68C59.5685 4.52 59.1845 4.36 58.7045 4.2C58.2245 4.04 57.7365 3.912 57.2405 3.816C56.7445 3.704 56.3045 3.648 55.9205 3.648C54.6565 3.648 53.5765 3.864 52.6805 4.296C51.8005 4.712 51.1285 5.344 50.6645 6.192C50.2165 7.04 49.9925 8.096 49.9925 9.36C49.9925 10.464 50.2405 11.416 50.7365 12.216C51.2325 13.016 51.9205 13.632 52.8005 14.064C53.6965 14.496 54.7125 14.712 55.8485 14.712C56.3445 14.712 56.8005 14.68 57.2165 14.616C57.6325 14.536 57.9845 14.416 58.2725 14.256V12.12H55.2245V8.76H61.8005V16.224ZM70.4337 9.192C70.4337 7.976 70.6657 6.824 71.1297 5.736C71.5937 4.648 72.2337 3.688 73.0497 2.856C73.8817 2.008 74.8417 1.344 75.9297 0.863999C77.0177 0.383999 78.1777 0.144 79.4097 0.144C80.6578 0.144 81.8258 0.383999 82.9138 0.863999C84.0017 1.344 84.9618 2.008 85.7938 2.856C86.6418 3.688 87.2977 4.648 87.7617 5.736C88.2418 6.824 88.4818 7.976 88.4818 9.192C88.4818 10.44 88.2418 11.608 87.7617 12.696C87.2977 13.784 86.6418 14.744 85.7938 15.576C84.9618 16.392 84.0017 17.032 82.9138 17.496C81.8258 17.96 80.6658 18.192 79.4337 18.192C78.1857 18.192 77.0177 17.96 75.9297 17.496C74.8417 17.032 73.8817 16.392 73.0497 15.576C72.2337 14.744 71.5937 13.784 71.1297 12.696C70.6657 11.608 70.4337 10.44 70.4337 9.192ZM74.0337 9.192C74.0337 10.232 74.2737 11.184 74.7537 12.048C75.2497 12.896 75.9137 13.576 76.7457 14.088C77.5777 14.584 78.5137 14.832 79.5537 14.832C80.5617 14.832 81.4658 14.584 82.2658 14.088C83.0818 13.576 83.7218 12.896 84.1858 12.048C84.6497 11.184 84.8817 10.232 84.8817 9.192C84.8817 8.12 84.6417 7.16 84.1618 6.312C83.6817 5.448 83.0337 4.768 82.2177 4.272C81.4017 3.76 80.4817 3.504 79.4578 3.504C78.4337 3.504 77.5137 3.76 76.6977 4.272C75.8817 4.768 75.2337 5.448 74.7537 6.312C74.2737 7.16 74.0337 8.12 74.0337 9.192Z" fill="white"/>
</svg>
